<svg xmlns="http://www.w3.org/2000/svg" viewBox="0 0 24 24" width="64" height="64">
  <rect width="100%" height="100%" rx="4" fill="#0ea5a4" />
  <g stroke="#fff" stroke-width="1.5" stroke-linecap="round" stroke-linejoin="round" fill="none">
    <path d="M12 2C6.48 2 2 6.48 2 12s4.48 10 10 10 10-4.48 10-10S17.52 2 12 2z" />
    <path d="M12 12m-4 0a4 4 0 1 0 8 0 4 4 0 1 0-8 0" />
    <path d="M8.5 15.5c.62-.63 1.4-1 2.22-1.21" />
    <path d="M15.5 15.5c-.62-.63-1.4-1-2.22-1.21" />
    <path d="M12 6.5V9" />
    <path d="M17.5 12h-2.5" />
    <path d="M6.5 12h2.5" />
  </g>
</svg>